<svg version="1" xmlns="http://www.w3.org/2000/svg" width="320" height="320" viewBox="0 0 240.000000 240.000000"><path d="M55.2 16.8c-3.1 3.6-7.9 9.1-10.5 12.1C42 32 37.6 37 34.9 40c-2.6 3-5.8 6.6-6.9 8-1.2 1.4-3.1 3.6-4.3 5-1.2 1.4-5.3 6.1-9.1 10.5s-7.3 8.1-7.8 8.3c-.4.2-.8.8-.8 1.2 0 .5-1.4 2.4-3.1 4.1-2.8 2.9-3 3.4-1.5 4.4.9.7 1.6 1.7 1.6 2.3 0 .6.4 1.2.8 1.4.4.1 2.3 2.3 4.2 4.8 1.9 2.5 3.8 4.7 4.1 5 .3.3 7.2 8.8 15.3 19 8.1 10.2 15.2 19.2 15.9 20 .7.8 3.3 4.2 6 7.5 2.6 3.3 5.3 6.7 6 7.5 1.1 1.2 27 33.6 30 37.5.4.5 1.7 2.1 2.8 3.5 1.2 1.4 8.7 10.7 16.6 20.8 8 10 14.9 18.2 15.3 18.2.3 0 3.1-3 6.1-6.7 3-3.7 6-7.5 6.6-8.3.7-.8 3.6-4.5 6.5-8.1 8.9-11 25.7-31.8 26.8-33.1.5-.7 3.1-4 5.8-7.3 2.6-3.3 5.2-6.5 5.7-7.1.6-.6 2.1-2.6 3.5-4.4 1.4-1.8 3-3.8 3.5-4.4.6-.6 3.7-4.5 7-8.6s6.5-8.2 7.2-9c2.6-3.3 8.6-10.6 10.1-12.5 1.5-1.8 20.5-25.5 22.4-28 .5-.6 2.2-2.6 3.8-4.5 5.2-6 5.2-6.1.7-11.1-2.3-2.5-6-6.8-8.2-9.4-6.8-8.2-7.9-9.6-10.2-12-1.3-1.3-2.3-2.7-2.3-3 0-.3-1-1.6-2.3-2.8-1.2-1.2-4.5-4.9-7.2-8.2-2.7-3.3-5.4-6.5-6-7.1-.5-.6-2.8-3.3-5-6-2.2-2.6-4.7-5.5-5.5-6.4-.8-.9-3.2-3.6-5.2-6.1l-3.7-4.6H61l-5.8 6.5zM148 30.4S134.3 44.2 117.5 61L87 91.5V30.3l30.5-.1c16.8 0 30.5.1 30.5.2zM69.7 82.5c0 28.3-.2 51.5-.3 51.5-.2 0-8.4-10-18.1-22.3C41.5 99.5 33.3 89.3 33 89c-1.5-1.3-6-7.8-6-8.6 0-.5 1.2-2.3 2.8-3.9 1.5-1.7 5.6-6.4 9.2-10.5 3.5-4.1 7.1-8.2 8-9.1.8-.9 3.3-3.7 5.5-6.3 6-7.2 16.8-19.5 17.1-19.6.1 0 .1 23.2.1 51.5zM174 33.9c0 .3 1.3 2 2.8 3.7 1.5 1.7 4.7 5.5 7.2 8.4 18 21.3 23.6 27.9 26.1 30.8 3.3 3.8 3.6 5.4 1.4 7.5-.8.8-3.7 4.4-6.5 7.9-2.8 3.4-5.6 7-6.3 7.8-.7.8-7.5 9.4-15.2 19-15.7 19.7-18.3 22.6-18.8 22-.4-.5-17.1-23.9-19.7-27.7-3-4.2-17.1-23.8-18.3-25.3-.7-.8-2.2-2.9-3.4-4.6l-2.2-3.1 18.2-17.5c10-9.7 21.3-20.5 25-24.1 4.2-4.1 7.3-6.4 8.2-6 .8.3 1.5.8 1.5 1.2zM116 104c2.7 3.9 31.1 44.7 32.2 46.4.7 1 2.1 2.8 3 4.1 1.6 2.1 1.6 2.3-.9 5.8-1.4 2.1-3 3.7-3.5 3.7-.4 0-.8.7-.8 1.5s-.3 1.5-.8 1.5c-.4 0-3 2.9-5.7 6.5s-5.2 6.5-5.7 6.5c-.4 0-.8.5-.8 1.1 0 .6-1.7 3.1-3.7 5.5-2.1 2.4-5 5.9-6.4 7.6-3.2 3.8-2.5 4.3-13.8-10-4.2-5.3-8.4-10.6-9.3-11.7-.9-1.1-4.2-5.2-7.3-9l-5.5-7v-43.2l10.6-10.2 10.5-10.3 3.4 4.9c1.9 2.6 3.9 5.5 4.5 6.3z"/></svg>